<svg width="60" height="60" viewBox="0 0 60 60" fill="none" xmlns="http://www.w3.org/2000/svg">
<rect width="60" height="60" fill="#F7931A"/>
<g clip-path="url(#clip0_2708_4619)">
<path d="M45.2014 26.1291C45.8185 22.0349 42.6778 19.834 38.3833 18.3657L39.7764 12.8195L36.3751 11.9782L35.0189 17.3782C34.1247 17.157 33.2063 16.9484 32.2938 16.7416L33.6597 11.3061L30.2604 10.4647L28.8663 16.009C28.1262 15.8416 27.3996 15.6763 26.6944 15.5022L26.6983 15.4849L22.0076 14.3224L21.1028 17.9282C21.1028 17.9282 23.6264 18.5022 23.5731 18.5378C24.9506 18.8791 25.1996 19.784 25.158 20.5013L23.5711 26.8195C23.6661 26.8436 23.7891 26.8782 23.9247 26.932C23.8114 26.9041 23.6903 26.8734 23.5653 26.8436L21.3411 35.6945C21.1725 36.1099 20.7453 36.733 19.7824 36.4965C19.8163 36.5455 17.3101 35.884 17.3101 35.884L15.6216 39.7484L20.0478 40.8436C20.8712 41.0484 21.6782 41.2628 22.4726 41.4647L21.065 47.0743L24.4624 47.9157L25.8564 42.3657C26.7845 42.6157 27.6854 42.8465 28.567 43.0638L27.1778 48.5878L30.5791 49.4291L31.9867 43.8301C37.7866 44.9195 42.1479 44.4801 43.9837 39.2734C45.463 35.0811 43.91 32.6628 40.8585 31.0859C43.0808 30.5772 44.7548 29.1263 45.2014 26.1291ZM37.4301 36.9455C36.379 41.1378 29.2674 38.8715 26.9618 38.3032L28.8295 30.8715C31.1351 31.4426 38.5286 32.5734 37.4301 36.9455ZM38.4821 26.0686C37.5231 29.882 31.604 27.9445 29.684 27.4695L31.3773 20.7291C33.2974 21.2041 39.4809 22.0907 38.4821 26.0686Z" fill="white"/>
</g>
<defs>
<clipPath id="clip0_2708_4619">
<rect width="31" height="40" fill="white" transform="translate(15 10)"/>
</clipPath>
</defs>
</svg>
